<svg width="16" height="18" viewBox="0 0 16 18" fill="none" xmlns="http://www.w3.org/2000/svg">
<g clip-path="url(#clip0_1_2624)">
<mask id="mask0_1_2624" style="mask-type:alpha" maskUnits="userSpaceOnUse" x="0" y="0" width="16" height="17">
<path d="M0 0.544969V16.853H15.982V0.542969H0V0.544969Z" fill="white"/>
</mask>
<g mask="url(#mask0_1_2624)">
<path fill-rule="evenodd" clip-rule="evenodd" d="M5.49004 0.990938C3.48408 1.69024 1.8278 3.14074 0.870035 5.03694C0.542127 5.68553 0.303303 6.37543 0.160035 7.08794C-0.198586 8.87518 0.0498883 10.731 0.866035 12.3609C1.39959 13.4173 2.15477 14.3461 3.08004 15.0839C3.95439 15.7805 4.9631 16.2891 6.04304 16.5779C7.40204 16.9419 8.84803 16.9339 10.216 16.6219C11.4604 16.3408 12.611 15.7428 13.556 14.8859C14.543 13.9789 15.248 12.7859 15.621 11.5019C16.029 10.1039 16.081 8.60894 15.827 7.17194H8.15604V10.3529H12.6C12.5113 10.861 12.3212 11.346 12.041 11.7789C11.7608 12.2119 11.3962 12.5839 10.969 12.8729C10.4261 13.2323 9.81397 13.4741 9.17204 13.5829C8.53203 13.6929 7.86504 13.7059 7.22504 13.5789C6.57269 13.4452 5.95508 13.1779 5.41104 12.7939C4.53985 12.1787 3.88619 11.3031 3.54404 10.2929C3.19572 9.26395 3.19572 8.14893 3.54404 7.11994C3.78929 6.39699 4.19393 5.73841 4.72804 5.19294C5.38984 4.51216 6.2374 4.04126 7.16504 3.83894C7.95856 3.67086 8.78152 3.70387 9.55904 3.93494C10.2178 4.13725 10.8197 4.49181 11.316 4.96994L12.816 3.46994C13.079 3.20294 13.355 2.94494 13.609 2.66794C12.8483 1.95984 11.9562 1.40776 10.983 1.04294C9.21233 0.397253 7.27365 0.378897 5.49104 0.990938" fill="white"/>
</g>
<mask id="mask1_1_2624" style="mask-type:alpha" maskUnits="userSpaceOnUse" x="0" y="0" width="14" height="8">
<path d="M13.609 0.543945H0.869995V7.11395H13.61V0.543945H13.609Z" fill="white"/>
</mask>
<g mask="url(#mask1_1_2624)">
<path fill-rule="evenodd" clip-rule="evenodd" d="M5.49099 0.991002C7.27351 0.379855 9.21144 0.396792 10.983 1.039C11.956 1.399 12.846 1.959 13.609 2.665C13.355 2.941 13.079 3.2 12.816 3.467L11.316 4.967C10.8186 4.49036 10.217 4.13602 9.559 3.932C8.78192 3.69843 7.95842 3.66506 7.16499 3.835C6.24499 4.033 5.39 4.515 4.728 5.19C4.19338 5.73391 3.78862 6.39164 3.544 7.114C2.654 6.423 1.764 5.734 0.869995 5.041C1.82636 3.14283 3.48296 1.69062 5.49 0.991002" fill="#EA4335"/>
</g>
<path fill-rule="evenodd" clip-rule="evenodd" d="M0.165037 7.08298C0.309037 6.37298 0.545037 5.68098 0.875037 5.03198C1.76504 5.72398 2.65504 6.41198 3.54904 7.10498C3.19825 8.13391 3.19825 9.25006 3.54904 10.279C2.65904 10.972 1.76904 11.664 0.879037 12.352C0.0559145 10.7257 -0.1956 8.86966 0.165037 7.08298Z" fill="#FBBC05"/>
<path fill-rule="evenodd" clip-rule="evenodd" d="M8.156 7.16699H15.827C16.0878 8.60725 16.0174 10.088 15.621 11.497C15.248 12.782 14.543 13.974 13.556 14.882L10.966 12.87C11.3931 12.5808 11.7575 12.2085 12.0376 11.7754C12.3176 11.3422 12.5075 10.8571 12.596 10.349H8.151C8.156 9.28899 8.156 8.22699 8.156 7.16699Z" fill="#4285F4"/>
<path fill-rule="evenodd" clip-rule="evenodd" d="M0.869995 12.357C1.76 11.668 2.65 10.976 3.54 10.283C3.88332 11.293 4.53668 12.169 5.407 12.786C5.95176 13.1693 6.56957 13.4365 7.222 13.571C7.862 13.702 8.524 13.685 9.168 13.575C9.81029 13.4663 10.4227 13.2244 10.966 12.865L13.556 14.877C12.623 15.741 11.452 16.328 10.216 16.613C8.84799 16.924 7.402 16.933 6.043 16.569C4.96236 16.2819 3.9533 15.7732 3.08 15.075C2.15635 14.3385 1.40252 13.4114 0.869995 12.357Z" fill="#34A853"/>
</g>
<defs>
<clipPath id="clip0_1_2624">
<rect width="16" height="17" fill="white" transform="translate(0 0.5)"/>
</clipPath>
</defs>
</svg>
