<svg width="21" height="20" viewBox="0 0 21 20" fill="none" xmlns="http://www.w3.org/2000/svg">
<path d="M5.09326 15.6719C6.68701 17.2344 8.57764 18.0156 10.7651 18.0156C12.9526 18.0156 14.8276 17.2344 16.3901 15.6719C17.9839 14.0781 18.7808 12.1875 18.7808 10C18.7808 7.8125 17.9839 5.9375 16.3901 4.375C14.8276 2.78125 12.9526 1.98438 10.7651 1.98438C8.57764 1.98438 6.68701 2.78125 5.09326 4.375C3.53076 5.9375 2.74951 7.8125 2.74951 10C2.74951 12.1875 3.53076 14.0781 5.09326 15.6719ZM3.68701 2.96875C5.65576 1 8.01514 0.015625 10.7651 0.015625C13.5151 0.015625 15.8589 1 17.7964 2.96875C19.7651 4.90625 20.7495 7.25 20.7495 10C20.7495 12.75 19.7651 15.1094 17.7964 17.0781C15.8589 19.0156 13.5151 19.9844 10.7651 19.9844C8.01514 19.9844 5.65576 19.0156 3.68701 17.0781C1.74951 15.1094 0.780762 12.75 0.780762 10C0.780762 7.25 1.74951 4.90625 3.68701 2.96875ZM9.78076 4.98438H11.7495V10.9844H9.78076V4.98438ZM9.78076 13H11.7495V15.0156H9.78076V13Z" fill="#E74C3C"/>
</svg>
