<svg width="32" height="33" viewBox="0 0 32 33" fill="none" xmlns="http://www.w3.org/2000/svg">
<path d="M9 17.7346C9.55228 17.7346 10 17.2869 10 16.7346C10 16.1823 9.55228 15.7346 9 15.7346C8.44772 15.7346 8 16.1823 8 16.7346C8 17.2869 8.44772 17.7346 9 17.7346Z" stroke="black" stroke-width="2" stroke-linecap="round" stroke-linejoin="round"/>
<path d="M16 17.7346C16.5523 17.7346 17 17.2869 17 16.7346C17 16.1823 16.5523 15.7346 16 15.7346C15.4477 15.7346 15 16.1823 15 16.7346C15 17.2869 15.4477 17.7346 16 17.7346Z" stroke="black" stroke-width="2" stroke-linecap="round" stroke-linejoin="round"/>
<path d="M23 17.7346C23.5523 17.7346 24 17.2869 24 16.7346C24 16.1823 23.5523 15.7346 23 15.7346C22.4477 15.7346 22 16.1823 22 16.7346C22 17.2869 22.4477 17.7346 23 17.7346Z" stroke="black" stroke-width="2" stroke-linecap="round" stroke-linejoin="round"/>
</svg>
